<?xml version="1.0" encoding="UTF-8"?>
<svg width="2400px" height="3600px" clip-rule="evenodd" fill-rule="evenodd" image-rendering="optimizeQuality" shape-rendering="geometricPrecision" text-rendering="geometricPrecision" viewBox="0 0 2400 3394.29" xmlns="http://www.w3.org/2000/svg">
 <defs>
  <style type="text/css">.str0 {stroke:#9B705A;stroke-width:5.71429;stroke-linecap:round;stroke-linejoin:round} .fil4 {fill:none} .fil3 {fill:#848484} .fil1 {fill:#A4A2A1} .fil2 {fill:#BFBBBB} .fil0 {fill:#CEAA78}</style>
 </defs>
 <rect class="fil0" transform="matrix(.86602 -.5 .85791 1.486 1619.8 2531.1)" width="92.08" height="366.02"/>
 <path class="fil1" d="m1533 2496.7l180.14-104 8.7543-5.0549c65.297-64.488 110.33-131.88 143.99-200.91-2.6171 82.718-35.136 169.28-114.74 259.01l-82.138 78.512-0.0011429 0.0022857-0.0011429 0.0011429-0.0011429 0.0011429h-0.0034286l-109.06 31.878c-117.51 24.069-208.73 8.952-281.68-30.139 76.61 5.3611 157.49 0.059429 245.99-24.245l8.7543-5.0549z"/>
 <polygon class="fil2" points="399.17 507.42 359.54 266.37 454 343.8 548.47 421.22 1453.4 1920.1 1713.1 2392.7 1630.1 2467 1524.2 2501.8 1234.8 2046.3"/>
 <rect class="fil3" transform="matrix(.86602 -.5 .5 .86602 439.81 449.17)" width="32.325" height="2049.9" rx="16.162" ry="16.162"/>
 <path class="fil3" d="m1497 2e3l210.34 382.83-39.199 35.094-187.33-324.46c-18.095-31.343-10.48-70.776 16.192-93.459zm60.344 479.12l-38.898 12.761-234.15-368.57c32.474-10.471 69.213 2.7509 86.919 33.419l186.13 322.39z"/>
 <line class="fil4 str0" x1="1670.3" x2="1729.4" y1="2618.6" y2="2536.8"/>
 <line class="fil4 str0" x1="1647.4" x2="1706.5" y1="2579" y2="2497.2"/>
 <line class="fil4 str0" x1="1693.2" x2="1752.2" y1="2658.2" y2="2576.4"/>
 <line class="fil4 str0" x1="1716" x2="1775.1" y1="2697.8" y2="2616"/>
 <line class="fil4 str0" x1="1738.9" x2="1797.9" y1="2737.4" y2="2655.6"/>
 <line class="fil4 str0" x1="1761.7" x2="1820.8" y1="2777" y2="2695.2"/>
 <line class="fil4 str0" x1="1784.6" x2="1843.6" y1="2816.6" y2="2734.8"/>
 <line class="fil4 str0" x1="1807.4" x2="1866.5" y1="2856.2" y2="2774.3"/>
 <line class="fil4 str0" x1="1830.3" x2="1889.4" y1="2895.8" y2="2813.9"/>
 <line class="fil4 str0" x1="1853.2" x2="1912.2" y1="2935.4" y2="2853.5"/>
 <line class="fil4 str0" x1="1876" x2="1935.1" y1="2974.9" y2="2893.1"/>
 <line class="fil4 str0" x1="1898.9" x2="1957.9" y1="3014.5" y2="2932.7"/>
 <line class="fil4 str0" x1="1921.7" x2="1980.8" y1="3054.1" y2="2972.3"/>
 <line class="fil4 str0" x1="1975.5" x2="2003.6" y1="3050.9" y2="3011.9"/>
 <circle class="fil2" transform="matrix(.90582 -.52298 .5 .86602 1986.8 3075.5)" r="51.832"/>
</svg>
